<mxfile host="app.diagrams.net" modified="2023-07-25T03:24:50.388Z" agent="Mozilla/5.0 (Windows NT 10.0; Win64; x64) AppleWebKit/537.36 (KHTML, like Gecko) Chrome/115.0.0.0 Safari/537.36" version="21.6.5" etag="Pf6DtzfmlrgOpUjabe-q" type="github">
  <diagram name="Page-1" id="zbH7EONF-1bV7V0KgBy8">
    <mxGraphModel>
      <root>
        <mxCell id="0" />
        <mxCell id="1" parent="0" />
      </root>
    </mxGraphModel>
  </diagram>
</mxfile>
